<svg width="101" height="26" viewBox="0 0 101 26" fill="none" xmlns="http://www.w3.org/2000/svg">
<path fill-rule="evenodd" clip-rule="evenodd" d="M50.0939 0.437012H50.9826V6.69775H50.0939V0.437012ZM30.9319 1.54888C30.388 0.974559 29.6152 0.674396 28.8263 0.731012H26.671V6.69785H28.8263C30.6037 6.69785 31.6339 5.6021 31.6339 3.69585C31.7334 2.91116 31.4757 2.12321 30.9319 1.54888ZM28.7228 5.85401H27.5978V1.57422H28.7228C29.2836 1.5431 29.829 1.76423 30.2098 2.17715C30.5906 2.59006 30.7669 3.15154 30.6906 3.70801C30.7729 4.26681 30.5991 4.83296 30.2173 5.24926C29.8356 5.66557 29.2866 5.88771 28.7228 5.85401ZM32.6808 4.44435C32.6036 3.63724 32.9906 2.85612 33.6795 2.42861C34.3685 2.00109 35.2402 2.00109 35.9291 2.42861C36.6181 2.85612 37.0051 3.63724 36.9279 4.44435C37.0065 5.25233 36.6199 6.03496 35.9303 6.4634C35.2408 6.89183 34.3679 6.89183 33.6783 6.4634C32.9888 6.03496 32.6021 5.25233 32.6808 4.44435ZM34.8058 2.89748C35.5753 2.89748 36.0138 3.46828 36.0138 4.44435C36.0138 5.42433 35.5753 5.99464 34.8058 5.99465C34.0334 5.99465 33.5988 5.42825 33.5988 4.44436C33.5988 3.46828 34.0333 2.89748 34.8058 2.89748ZM42.5734 6.69776H41.6515L40.7208 3.38135H40.6505L39.7238 6.69776H38.8107L37.5695 2.19483H38.4708L39.2775 5.63083H39.3439L40.2697 2.19483H41.1222L42.048 5.63083H42.1183L42.921 2.19483H43.8097L42.5734 6.69776ZM45.7091 2.19483H44.8537L44.8536 6.69776H45.7423V4.06348C45.7104 3.76381 45.811 3.46516 46.0177 3.24583C46.2243 3.02649 46.5165 2.90835 46.8175 2.92237C47.4747 2.92237 47.7892 3.28224 47.7892 4.00587V6.69771H48.6779V3.78271C48.743 3.34244 48.6044 2.89643 48.3012 2.57061C47.998 2.2448 47.5631 2.07454 47.1193 2.10791C46.5461 2.06132 46.0065 2.38349 45.7755 2.91016H45.7091V2.19483ZM53.2168 2.42853C52.5278 2.85605 52.1407 3.63718 52.2179 4.44435C52.1393 5.25236 52.5261 6.03497 53.2156 6.46339C53.9052 6.8918 54.7782 6.8918 55.4677 6.46339C56.1573 6.03497 56.544 5.25236 56.4655 4.44435C56.5426 3.63718 56.1555 2.85605 55.4666 2.42853C54.7776 2.00101 53.9058 2.00101 53.2168 2.42853ZM55.5509 4.44435C55.5509 3.46828 55.1124 2.89748 54.3429 2.89748C53.5704 2.89748 53.1359 3.46828 53.1359 4.44436C53.1359 5.42825 53.5705 5.99465 54.3429 5.99465C55.1124 5.99464 55.5509 5.42433 55.5509 4.44435ZM59.0758 4.08009C58.0045 4.1465 57.401 4.61378 57.401 5.42433C57.4025 5.80866 57.5665 6.17441 57.8525 6.43116C58.1385 6.68792 58.5197 6.81172 58.902 6.77196C59.4473 6.79717 59.964 6.52709 60.2545 6.06496H60.3248V6.69777H61.1803V3.62111C61.1803 2.66993 60.5436 2.10793 59.4147 2.10793C58.3932 2.10793 57.6657 2.60402 57.5748 3.37746H58.4352C58.5338 3.0591 58.8776 2.87697 59.3737 2.87697C59.9811 2.87697 60.2955 3.14552 60.2955 3.62111V4.00978L59.0758 4.08009ZM60.2955 5.03956V4.6631L59.1959 4.73341C58.5758 4.77491 58.2946 4.98585 58.2946 5.38282C58.2946 5.78809 58.6461 6.02393 59.1296 6.02393C59.4157 6.0529 59.7014 5.96449 59.9212 5.77893C60.141 5.59337 60.2761 5.32655 60.2955 5.03956ZM64.2174 2.12013C63.0797 2.12013 62.3483 3.0215 62.3483 4.44435C62.3483 5.87062 63.0719 6.77201 64.2174 6.77196C64.7982 6.79337 65.3429 6.49075 65.6315 5.98632H65.7018V6.69775H66.5533V0.437012H65.6647V2.91013H65.5983C65.3299 2.40148 64.7919 2.09366 64.2174 2.12013ZM63.2663 4.44435C63.2663 5.39943 63.7165 5.97414 64.4694 5.97414C65.2184 5.97414 65.6813 5.39114 65.6813 4.44826C65.6813 3.50978 65.2135 2.91847 64.4694 2.91847C63.7213 2.91847 63.2662 3.49708 63.2662 4.44435H63.2663ZM71.2289 2.42861C70.5399 2.85612 70.1529 3.63724 70.2301 4.44435C70.1514 5.25233 70.5381 6.03496 71.2276 6.4634C71.9172 6.89183 72.7901 6.89183 73.4797 6.4634C74.1692 6.03496 74.5559 5.25233 74.4772 4.44435C74.5544 3.63724 74.1674 2.85612 73.4784 2.42861C72.7895 2.00109 71.9178 2.00109 71.2289 2.42861ZM73.5631 4.44435C73.5631 3.46828 73.1246 2.89748 72.3551 2.89748C71.5827 2.89748 71.1481 3.46828 71.1481 4.44436C71.1481 5.42825 71.5827 5.99465 72.3551 5.99465C73.1246 5.99464 73.5631 5.42433 73.5631 4.44435ZM76.525 2.19483H75.6696V6.69776H76.5582V4.06348C76.5264 3.76381 76.6269 3.46516 76.8336 3.24583C77.0403 3.02649 77.3324 2.90835 77.6334 2.92237C78.2907 2.92237 78.6051 3.28224 78.6051 4.00587V6.69771H79.4938V3.78271C79.5589 3.34244 79.4203 2.89643 79.1171 2.57061C78.8139 2.2448 78.379 2.07454 77.9352 2.10791C77.362 2.06132 76.8224 2.38349 76.5914 2.91016H76.525V2.19483ZM84.5153 1.07374V2.21534H85.4909V2.96388H84.5153V5.27931C84.5153 5.75099 84.7096 5.95753 85.152 5.95753C85.2652 5.95717 85.3784 5.95032 85.4909 5.93702V6.67725C85.3313 6.7058 85.1696 6.72099 85.0075 6.72266C84.0192 6.72266 83.6256 6.375 83.6256 5.50684V2.96384H82.9108V2.2153H83.6256V1.07374H84.5153ZM87.5856 0.437012H86.7047L86.7048 6.69774H87.5934V4.06786C87.566 3.75887 87.6763 3.45351 87.8949 3.23341C88.1134 3.0133 88.4181 2.90091 88.7272 2.92626C89.3551 2.92626 89.6901 3.29052 89.6901 4.00976V6.69776H90.5797V3.79053C90.6385 3.35252 90.499 2.91108 90.1991 2.58645C89.8992 2.26182 89.4702 2.08781 89.0289 2.11182C88.447 2.0646 87.8979 2.38718 87.6559 2.91846H87.5856V0.437012ZM95.7614 5.48194C95.5122 6.33132 94.6902 6.88011 93.8102 6.78467C93.2098 6.80052 92.6327 6.55164 92.2321 6.10407C91.8316 5.65649 91.648 5.05547 91.7301 4.46046C91.6502 3.8638 91.8331 3.26182 92.2314 2.81046C92.6297 2.3591 93.2043 2.10279 93.8063 2.10792C95.0592 2.10792 95.8151 2.96392 95.8151 4.37792V4.68801H92.6354V4.73781C92.6072 5.07195 92.7214 5.40246 92.9497 5.64805C93.178 5.89365 93.4993 6.03154 93.8346 6.02781C94.2694 6.08001 94.6926 5.86434 94.9059 5.48191L95.7614 5.48194ZM94.9098 4.03077H92.6354C92.6313 3.72027 92.7529 3.42129 92.9724 3.20166C93.1919 2.98203 93.4909 2.86037 93.8014 2.86427C94.1077 2.85725 94.4028 2.97992 94.6139 3.20207C94.825 3.42422 94.9324 3.72517 94.9098 4.03077ZM65.6793 21.0761C64.0446 21.0761 62.8483 20.2676 62.7106 19.0361L60.8082 19.0361C60.9283 21.2822 62.7877 22.7031 65.5416 22.7031C68.485 22.7031 70.3356 21.248 70.3356 18.9247C70.3356 17.1084 69.277 16.0849 66.7291 15.4824L65.361 15.1464C63.7604 14.7509 63.1061 14.2343 63.1061 13.3564C63.1061 12.2549 64.1305 11.498 65.6275 11.498C67.1246 11.498 68.149 12.2461 68.2613 13.4853H70.1373C70.0768 11.3427 68.2779 9.87105 65.6539 9.87105C63.0026 9.87105 61.1354 11.3427 61.1354 13.4853C61.1354 15.2158 62.194 16.2822 64.4743 16.833L66.0836 17.2207C67.693 17.6162 68.3727 18.1933 68.3727 19.1572C68.3727 20.2676 67.2457 21.0761 65.6793 21.0761ZM33.3024 19.1397H28.569L27.4323 22.4961H25.4274L29.9108 10.0781H31.9938L36.4772 22.4961H34.4381L33.3024 19.1397ZM29.0592 17.5908H32.8112L30.9616 12.1436H30.9098L29.0592 17.5908ZM42.3815 22.5908C44.6539 22.5908 46.1598 20.7832 46.1598 17.9697C46.1598 15.1641 44.6451 13.3477 42.3473 13.3477C41.1649 13.3095 40.0573 13.9245 39.4645 14.9483H39.4303V13.4424H37.6315V25.4912H39.4899V21.0068H39.5329C40.1004 22.037 41.2069 22.6523 42.3815 22.5908ZM44.2496 17.9697C44.2496 16.1367 43.3024 14.9317 41.8571 14.9317C40.4371 14.9317 39.4821 16.1621 39.4821 17.9697C39.4821 19.794 40.4371 21.0156 41.8571 21.0156C43.3024 21.0156 44.2496 19.8194 44.2496 17.9697ZM52.3463 22.5908C54.6188 22.5908 56.1246 20.7832 56.1246 17.9697C56.1246 15.1641 54.61 13.3477 52.3121 13.3477C51.1297 13.3095 50.0221 13.9245 49.4293 14.9483H49.3951V13.4424H47.5963V25.4912H49.4547V21.0068H49.4977C50.0653 22.037 51.1717 22.6523 52.3463 22.5908ZM54.2145 17.9697C54.2145 16.1367 53.2672 14.9317 51.8219 14.9317C50.402 14.9317 49.4469 16.1621 49.4469 17.9697C49.4469 19.794 50.402 21.0156 51.8219 21.0156C53.2672 21.0156 54.2145 19.8194 54.2145 17.9697ZM74.3463 11.2998V13.4424H76.068V14.9141H74.3463V19.9053C74.3463 20.6807 74.6911 21.042 75.4479 21.042C75.6523 21.0384 75.8563 21.0241 76.0592 20.999V22.4619C75.7189 22.5255 75.3731 22.5543 75.027 22.5478C73.194 22.5478 72.4791 21.8594 72.4791 20.1035V14.9141H71.1627V13.4424H72.4791V11.2998H74.3463ZM81.3591 13.3311C78.7428 13.3311 77.0651 15.1211 77.0651 17.9697C77.0651 20.8262 78.7262 22.6084 81.3591 22.6084C83.9929 22.6084 85.654 20.8262 85.654 17.9697C85.654 15.1211 83.9841 13.3311 81.3591 13.3311ZM83.7604 17.9697C83.7604 16.0156 82.8649 14.8623 81.3591 14.8623C79.8532 14.8623 78.9587 16.0244 78.9587 17.9697C78.9587 19.9317 79.8532 21.0762 81.3591 21.0762C82.8649 21.0762 83.7604 19.9317 83.7604 17.9697ZM88.9586 13.4424H87.1862L87.1862 22.4961H89.0446V17.126C88.9827 16.5827 89.1614 16.0395 89.5337 15.639C89.906 15.2385 90.4347 15.0208 90.9811 15.043C91.2637 15.0347 91.5457 15.0727 91.8161 15.1553V13.417C91.6071 13.3702 91.3935 13.3469 91.1794 13.3477C90.1578 13.3086 89.2488 13.9914 89.0016 14.9834H88.9586V13.4424ZM100.384 19.8369C100.134 21.4805 98.5338 22.6084 96.486 22.6084C93.8522 22.6084 92.2174 20.8438 92.2174 18.0127C92.2174 15.1729 93.861 13.3311 96.4079 13.3311C98.9127 13.3311 100.488 15.0518 100.488 17.7969V18.4336H94.0934V18.5459C94.0337 19.2199 94.2664 19.8871 94.7324 20.3778C95.1984 20.8684 95.8527 21.1352 96.529 21.1104C97.4308 21.1949 98.2811 20.677 98.6198 19.8369L100.384 19.8369ZM98.6285 17.1348H94.1022C94.1006 16.5235 94.3433 15.9369 94.7762 15.5054C95.2092 15.0739 95.7966 14.8333 96.4079 14.8369C97.0143 14.8239 97.5987 15.0645 98.0203 15.5006C98.4418 15.9368 98.6623 16.5291 98.6285 17.1348ZM13.0376 4.21083C13.8491 3.23663 14.2489 1.98445 14.1521 0.720215C12.9123 0.850435 11.767 1.44299 10.9445 2.37982C10.1323 3.30413 9.72091 4.51338 9.80081 5.74121C11.0573 5.75415 12.2502 5.1901 13.0376 4.21083ZM15.769 12.3006C15.7908 10.6041 16.6802 9.03708 18.1256 8.14851C17.2096 6.84041 15.7305 6.04077 14.1344 5.99083C13.1072 5.88302 12.0992 6.28307 11.2755 6.61002C10.7525 6.81757 10.3038 6.99566 9.97149 6.99566C9.59349 6.99566 9.13188 6.81025 8.61465 6.60249C7.93833 6.33084 7.16691 6.02098 6.36299 6.03752C4.49631 6.09783 2.79825 7.13342 1.89007 8.76539C-0.0439278 12.1138 1.39866 17.0349 3.25127 19.7415C4.17817 21.0668 5.26145 22.5473 6.6789 22.4948C7.3219 22.4681 7.77815 22.2761 8.24941 22.0778C8.79473 21.8483 9.36016 21.6103 10.2583 21.6103C11.1052 21.6103 11.6464 21.8408 12.1657 22.0621C12.6636 22.2742 13.1414 22.4777 13.8493 22.4614C15.3377 22.4372 16.2754 21.1302 17.1698 19.7923C17.8358 18.8479 18.3483 17.8042 18.6882 16.6997C16.9205 15.9521 15.7711 14.2199 15.769 12.3006Z" fill="white"/>
</svg>
