<svg width="106" height="27" viewBox="0 0 106 27" fill="none" xmlns="http://www.w3.org/2000/svg">
<path fill-rule="evenodd" clip-rule="evenodd" d="M0 11.7831V1.8126C0 1.24285 0.48 0.768066 0.96 0.768066C1.44 0.768066 1.632 0.863024 1.92 1.05294L20.448 11.1184C20.832 11.3083 21.024 11.5932 21.024 11.8781C21.024 12.1629 20.832 12.4478 20.448 12.6377L1.92 22.7032C1.728 22.7982 1.44 22.9881 0.96 22.9881C0.48 22.9881 0 22.5133 0 21.9435V11.7831Z" fill="url(#paint0_linear_878_102113)"/>
<path fill-rule="evenodd" clip-rule="evenodd" d="M11.9996 12.0001L0.767578 0.768066C0.863578 0.768066 0.863578 0.768066 0.959578 0.768066C1.43958 0.768066 1.63158 0.864066 1.91958 1.05607L15.5516 8.54407L11.9996 12.0001Z" fill="url(#paint1_linear_878_102113)"/>
<path fill-rule="evenodd" clip-rule="evenodd" d="M15.456 15.3601L12 11.9041L15.552 8.35205L20.448 11.0401C20.832 11.2321 21.024 11.5201 21.024 11.8081C21.024 12.0961 20.832 12.3841 20.448 12.5761L15.456 15.3601Z" fill="url(#paint2_linear_878_102113)"/>
<path fill-rule="evenodd" clip-rule="evenodd" d="M0.864258 23.0401V23.0401L12.0003 11.9041L15.4563 15.3601L1.92026 22.7521C1.63226 22.9441 1.44026 23.0401 0.864258 23.0401C0.960258 23.0401 0.960258 23.0401 0.864258 23.0401Z" fill="url(#paint3_linear_878_102113)"/>
<path fill-rule="evenodd" clip-rule="evenodd" d="M58.8481 25.6319C58.3681 25.2479 57.9841 24.5759 57.7921 24.1919L59.3281 23.5199C59.4241 23.7119 59.6161 23.9999 59.8081 24.2879C60.1921 24.6719 60.7681 25.0559 61.3441 25.0559C61.9201 25.0559 62.5921 24.7679 62.9761 24.2879C63.2641 23.8079 63.4561 23.3279 63.4561 22.6559V22.0799C62.3041 23.5199 59.9041 23.3279 58.5601 21.7919C57.1201 20.2559 57.1201 17.6639 58.5601 16.1279C60.0001 14.6879 62.1121 14.4959 63.3601 15.8399V15.1679H64.9921V22.3679C64.9921 24.1919 64.3201 25.2479 63.4561 25.9199C62.8801 26.3999 62.0161 26.5919 61.2481 26.5919C60.3841 26.4959 59.5201 26.2079 58.8481 25.6319ZM99.0721 26.0159L100.704 22.1759L97.8241 15.5519H99.4561L101.472 20.2559L103.488 15.5519H105.12L100.704 26.0159H99.0721ZM91.2961 22.3679C90.8161 21.8879 90.6241 21.2159 90.6241 20.5439C90.6241 19.9679 90.8161 19.3919 91.2001 19.0079C91.8721 18.3359 92.8321 18.0479 93.8881 18.0479C94.5601 18.0479 95.1361 18.1439 95.6161 18.4319C95.6161 17.2799 94.6561 16.7999 93.8881 16.7999C93.2161 16.7999 92.5441 17.1839 92.2561 17.8559L90.8161 17.2799C91.1041 16.6079 91.8721 15.3599 93.7921 15.3599C94.7521 15.3599 95.7121 15.6479 96.2881 16.3199C96.8641 16.9919 97.0561 17.7599 97.0561 18.8159V22.8479H95.4241V22.1759C95.2321 22.4639 94.8481 22.6559 94.5601 22.8479C94.1761 23.0399 93.6961 23.1359 93.2161 23.1359C92.6401 23.0399 91.7761 22.8479 91.2961 22.3679ZM40.1281 18.9119C40.1281 16.9919 41.5681 14.8799 44.1601 14.8799C46.6561 14.8799 48.1921 16.9919 48.1921 18.9119C48.1921 20.8319 46.7521 22.9439 44.1601 22.9439C41.5681 22.9439 40.1281 20.8319 40.1281 18.9119ZM48.7681 18.9119C48.7681 16.9919 50.2081 14.8799 52.8001 14.8799C55.2961 14.8799 56.8321 16.9919 56.8321 18.9119C56.8321 20.8319 55.3921 22.9439 52.8001 22.9439C50.3041 22.9439 48.7681 20.8319 48.7681 18.9119ZM29.2801 21.0239C26.8801 18.6239 26.9761 14.6879 29.3761 12.1919C30.6241 10.9439 32.1601 10.3679 33.7921 10.3679C35.3281 10.3679 36.8641 10.9439 38.0161 12.0959L36.8641 13.3439C35.1361 11.6159 32.3521 11.7119 30.7201 13.4399C28.9921 15.2639 28.9921 18.0479 30.7201 19.8719C32.4481 21.6959 35.3281 21.7919 37.0561 19.9679C37.6321 19.3919 37.8241 18.6239 37.9201 17.8559H33.8881V16.1279H39.5521C39.6481 16.5119 39.6481 16.9919 39.6481 17.4719C39.6481 18.9119 39.0721 20.3519 38.1121 21.3119C37.0561 22.3679 35.5201 22.9439 33.9841 22.9439C32.2561 22.8479 30.5281 22.2719 29.2801 21.0239ZM69.8881 21.6959C68.4481 20.1599 68.4481 17.5679 69.8881 15.9359C71.3281 14.3999 73.7281 14.3999 75.0721 15.9359C75.5521 16.4159 75.8401 17.0879 76.1281 17.7599L70.8481 19.9679C71.1361 20.6399 71.8081 21.2159 72.7681 21.2159C73.6321 21.2159 74.2081 20.9279 74.7841 20.0639L76.2241 21.0239C76.0321 21.2159 75.8401 21.4079 75.7441 21.5999C74.1121 23.2319 71.3281 23.2319 69.8881 21.6959ZM79.8721 22.8479V12.1919H83.3281C85.3441 12.1919 86.9761 13.6319 86.9761 15.3599C86.9761 17.0879 85.5361 18.5279 83.7121 18.5279H81.6001V22.7519H79.8721V22.8479ZM87.9361 22.8479V12.1919H89.5681V22.8479H87.9361ZM66.2401 22.6559V10.7519H67.9681V22.6559H66.2401ZM95.5201 19.6799C95.1361 19.3919 94.5601 19.2959 93.9841 19.2959C92.8321 19.2959 92.1601 19.8719 92.1601 20.5439C92.1601 21.2159 92.8321 21.5999 93.5041 21.5999C94.4641 21.5999 95.5201 20.8319 95.5201 19.6799ZM46.3681 18.9119C46.3681 17.7599 45.6001 16.5119 44.1601 16.5119C42.7201 16.5119 41.9521 17.7599 41.9521 18.9119C41.9521 20.0639 42.7201 21.3119 44.1601 21.3119C45.5041 21.3119 46.3681 20.0639 46.3681 18.9119ZM55.0081 18.9119C55.0081 17.7599 54.2401 16.5119 52.8001 16.5119C51.3601 16.5119 50.5921 17.7599 50.5921 18.9119C50.5921 20.0639 51.3601 21.3119 52.8001 21.3119C54.2401 21.3119 55.0081 20.0639 55.0081 18.9119ZM63.5521 19.5839C63.5521 19.4879 63.5521 19.3919 63.6481 19.2959C63.6481 19.1999 63.6481 19.0079 63.6481 18.9119C63.6481 18.8159 63.6481 18.6239 63.6481 18.5279V18.4319C63.6481 18.3359 63.5521 18.1439 63.5521 18.0479C63.2641 17.0879 62.4001 16.4159 61.5361 16.4159C60.3841 16.4159 59.4241 17.5679 59.4241 18.8159C59.4241 20.1599 60.3841 21.2159 61.6321 21.2159C62.4001 21.3119 63.1681 20.6399 63.5521 19.5839ZM70.5601 18.7199L74.1121 17.1839C73.7281 16.5119 73.1521 16.3199 72.6721 16.3199C71.2321 16.4159 70.3681 17.9519 70.5601 18.7199ZM85.2481 15.4559C85.2481 14.4959 84.4801 13.8239 83.4241 13.8239H81.5041V17.1839H83.5201C84.4801 17.1839 85.2481 16.4159 85.2481 15.4559Z" fill="white"/>
<path fill-rule="evenodd" clip-rule="evenodd" d="M100.32 24.0961H100.224V24.0001H100.32H100.224V24.0961H100.32Z" fill="white"/>
<path fill-rule="evenodd" clip-rule="evenodd" d="M100.608 24.0001H100.512H100.608V24.0961V24.0001Z" fill="white"/>
<path d="M27.9355 2.784C27.9355 1.056 29.1835 0 30.7195 0C31.7755 0 32.4475 0.48 32.9275 1.152L32.1595 1.632C31.8715 1.248 31.3915 0.96 30.7195 0.96C29.6635 0.96 28.8955 1.728 28.8955 2.88C28.8955 4.032 29.6635 4.8 30.7195 4.8C31.2955 4.8 31.7755 4.512 31.9675 4.32V3.456H30.4315V2.592H33.0235V4.608C32.5435 5.184 31.7755 5.568 30.8155 5.568C29.1835 5.568 27.9355 4.416 27.9355 2.784Z" fill="white"/>
<path d="M34.1758 5.47195V0.0959473H37.8238V0.959947H35.0398V2.30395H37.7278V3.16795H35.0398V4.70395H37.8238V5.56795L34.1758 5.47195Z" fill="white"/>
<path d="M40.5119 5.47195V0.959947H38.8799V0.0959473H43.1039V0.959947H41.4719V5.47195H40.5119Z" fill="white"/>
<path d="M46.3682 5.47195V0.0959473H47.3282V5.47195H46.3682Z" fill="white"/>
<path d="M49.9201 5.47195V0.959947H48.2881V0.0959473H52.5121V0.959947H50.8801V5.47195H49.9201Z" fill="white"/>
<path fill-rule="evenodd" clip-rule="evenodd" d="M58.368 0C56.736 0 55.584 1.152 55.584 2.784C55.584 4.32 56.736 5.568 58.368 5.568C60 5.568 61.152 4.416 61.152 2.784C61.152 1.152 60 0 58.368 0ZM58.272 0.864C59.424 0.864 60.096 1.632 60.096 2.784C60.096 3.84 59.424 4.704 58.272 4.704C57.12 4.704 56.448 3.936 56.448 2.784C56.448 1.728 57.216 0.864 58.272 0.864Z" fill="white"/>
<path d="M65.952 5.47195L63.168 1.63195V5.47195H62.208V0.0959473H63.168L65.952 3.83995V0.0959473H66.912V5.47195H65.952Z" fill="white"/>
<defs>
<linearGradient id="paint0_linear_878_102113" x1="-4.11952" y1="2.2536" x2="1.8394" y2="23.9244" gradientUnits="userSpaceOnUse">
<stop stop-color="#006884"/>
<stop offset="1" stop-color="#8AD1D0"/>
</linearGradient>
<linearGradient id="paint1_linear_878_102113" x1="-5.55608" y1="8.1016" x2="6.19613" y2="19.1086" gradientUnits="userSpaceOnUse">
<stop stop-color="#24BBB6"/>
<stop offset="1" stop-color="#DBE692"/>
</linearGradient>
<linearGradient id="paint2_linear_878_102113" x1="21.4194" y1="15.7633" x2="21.4194" y2="8.13288" gradientUnits="userSpaceOnUse">
<stop stop-color="#FCC072"/>
<stop offset="1" stop-color="#F58A5B"/>
</linearGradient>
<linearGradient id="paint3_linear_878_102113" x1="10.2056" y1="29.4411" x2="18.1357" y2="15.5838" gradientUnits="userSpaceOnUse">
<stop stop-color="#712B8F"/>
<stop offset="1" stop-color="#EA1D27"/>
</linearGradient>
</defs>
</svg>
