<svg width="14" height="9" viewBox="0 0 14 9" fill="none" xmlns="http://www.w3.org/2000/svg">
<path d="M1.37533 4.16665C1.03015 4.16665 0.750326 4.44647 0.750326 4.79165C0.750326 5.10806 0.985455 5.36956 1.29052 5.41094L1.37533 5.41665H13.042C13.3872 5.41665 13.667 5.13682 13.667 4.79165C13.667 4.47523 13.4319 4.21374 13.1268 4.17235L13.042 4.16665H1.37533Z" fill="white"/>
<path d="M13.4839 4.3497C13.262 4.12782 12.9148 4.10764 12.6701 4.28919L12.6001 4.3497L9.26672 7.68304C9.02264 7.92712 9.02264 8.32284 9.26672 8.56692C9.48861 8.78881 9.83583 8.80898 10.0805 8.62744L10.1506 8.56692L13.4839 5.23359C13.728 4.98951 13.728 4.59378 13.4839 4.3497Z" fill="white"/>
<path d="M10.1506 1.01637C9.90652 0.772294 9.51079 0.772294 9.26672 1.01637C9.04483 1.23826 9.02466 1.58548 9.2062 1.83016L9.26672 1.90025L12.6001 5.23359C12.8441 5.47767 13.2399 5.47767 13.4839 5.23359C13.7058 5.0117 13.726 4.66448 13.5444 4.4198L13.4839 4.3497L10.1506 1.01637Z" fill="white"/>
</svg>
